<svg viewBox="0 0 200 200" xmlns="http://www.w3.org/2000/svg">
  <path
    fill="#000000"
    d="M100 20c-22 0-40 18-40 40 0 8.4 2.6 16.2 7 22.6-15.4 7.4-26 23.2-26 41.4 0 25.4 20.6 46 46 46 3.6 0 7.2-.4 10.6-1.2 4.8 7.2 13 12.2 22.4 12.2 14.8 0 26.8-12 26.8-26.8 0-2.8-.4-5.4-1.2-8 14-7.8 23.4-22.8 23.4-40.2 0-25.4-20.6-46-46-46-3.6 0-7.2.4-10.6 1.2C107.6 53.8 99.4 48.8 90 48.8c-7.4 0-14 3-18.8 7.8-2.2-4.6-3.2-9.6-3.2-14.8 0-18 14.6-32.6 32.6-32.6s32.6 14.6 32.6 32.6c0 5.2-1.2 10.2-3.4 14.8 9.2 4.6 16.8 12.2 21.4 21.4 4.6-2.2 9.6-3.4 14.8-3.4 18 0 32.6 14.6 32.6 32.6s-14.6 32.6-32.6 32.6c-5.2 0-10.2-1.2-14.8-3.4-4.6 9.2-12.2 16.8-21.4 21.4 2.2 4.6 3.4 9.6 3.4 14.8 0 18-14.6 32.6-32.6 32.6s-32.6-14.6-32.6-32.6c0-5.2 1.2-10.2 3.4-14.8-9.2-4.6-16.8-12.2-21.4-21.4-4.6 2.2-9.6 3.4-14.8 3.4-18 0-32.6-14.6-32.6-32.6s14.6-32.6 32.6-32.6c5.2 0 10.2 1.2 14.8 3.4 4.6-9.2 12.2-16.8 21.4-21.4-2.2-4.6-3.4-9.6-3.4-14.8 0-18 14.6-32.6 32.6-32.6z"
  />
  <circle cx="80" cy="100" r="8" fill="#ffffff" />
  <circle cx="120" cy="100" r="8" fill="#ffffff" />
  <path
    fill="#ffffff"
    d="M100 130c-8.4 0-15.2-6.8-15.2-15.2 0-8.4 6.8-15.2 15.2-15.2s15.2 6.8 15.2 15.2c0 8.4-6.8 15.2-15.2 15.2z"
  />
</svg> 